<?xml version="1.0" encoding="UTF-8" standalone="no"?>
<!-- Created with Inkscape (http://www.inkscape.org/) -->

<svg
   width="210mm"
   height="297mm"
   viewBox="0 0 210 297"
   version="1.1"
   id="svg1"
   inkscape:version="1.4.2 (f4327f4, 2025-05-13)"
   sodipodi:docname="disegno.svg"
   xmlns:inkscape="http://www.inkscape.org/namespaces/inkscape"
   xmlns:sodipodi="http://sodipodi.sourceforge.net/DTD/sodipodi-0.dtd"
   xmlns="http://www.w3.org/2000/svg"
   xmlns:svg="http://www.w3.org/2000/svg">
  <sodipodi:namedview
     id="namedview1"
     pagecolor="#ffffff"
     bordercolor="#000000"
     borderopacity="0.25"
     inkscape:showpageshadow="2"
     inkscape:pageopacity="0.0"
     inkscape:pagecheckerboard="0"
     inkscape:deskcolor="#d1d1d1"
     inkscape:document-units="mm"
     inkscape:zoom="1.9477379"
     inkscape:cx="368.37605"
     inkscape:cy="212.29756"
     inkscape:window-width="1920"
     inkscape:window-height="991"
     inkscape:window-x="1911"
     inkscape:window-y="-9"
     inkscape:window-maximized="1"
     inkscape:current-layer="layer1" />
  <defs
     id="defs1">
    <rect
       x="94.468561"
       y="96.522226"
       width="640.74328"
       height="375.82059"
       id="rect1" />
    <rect
       x="94.468559"
       y="96.522224"
       width="640.74329"
       height="375.82059"
       id="rect1-4" />
    <rect
       x="94.468559"
       y="96.522224"
       width="640.74329"
       height="375.82059"
       id="rect1-3" />
  </defs>
  <g
     inkscape:label="Livello 1"
     inkscape:groupmode="layer"
     id="layer1">
    <text
       xml:space="preserve"
       id="text1"
       style="font-size:133.333px;text-align:start;writing-mode:lr-tb;direction:ltr;white-space:pre;shape-inside:url(#rect1);display:inline;mix-blend-mode:darken;fill:#000000"
       transform="matrix(0.26458333,0,0,0.26458333,23.636395,5.8411773)"
       inkscape:highlight-color="#3b80ee"><tspan
         x="94.46875"
         y="255.17149"
         id="tspan10"><tspan
           style="font-size:173.333px;font-family:'Glitch Goblin';-inkscape-font-specification:'Glitch Goblin';fill:#b331ff;fill-opacity:0.774118"
           id="tspan2">H</tspan><tspan
           style="font-size:120px;font-family:'WC Speed Bta';-inkscape-font-specification:'WC Speed Bta';fill:#b331ff;fill-opacity:0.774118"
           id="tspan3">z</tspan><tspan
           style="font-family:'Glitch Goblin';-inkscape-font-specification:'Glitch Goblin'"
           id="tspan4">ea</tspan><tspan
           style="font-size:173.333px;font-family:'Glitch Goblin';-inkscape-font-specification:'Glitch Goblin'"
           id="tspan5">D</tspan></tspan></text>
    <path
       id="text1-1"
       style="font-size:133.333px;text-align:start;writing-mode:lr-tb;direction:ltr;white-space:pre;shape-inside:url(#rect1-3);display:inline;mix-blend-mode:darken;fill:#ffdd55;stroke-width:0.264583"
       d="m 152.49414,40.039062 c -3.38216,0 -6.76432,10e-7 -10.14648,0 -0.2885,1.342218 -0.56854,2.686277 -0.85352,4.029297 -0.72331,0 -1.44661,0 -2.16992,0 -0.62174,2.915089 -1.23903,5.831125 -1.86133,8.746094 0.94555,-0.275692 0.6355,0.464933 0.48568,1.075864 -0.79686,3.738991 -1.59203,7.478344 -2.38998,11.217105 0.72657,0 1.45313,0 2.17969,0 -0.26367,1.257812 -0.52734,2.515625 -0.79101,3.773437 -0.84625,0.284717 -0.80864,-0.470665 -0.8904,-1.085584 -0.14457,-0.884889 -0.2896,-1.769704 -0.43382,-2.65465 -0.52999,-0.0696 -1.29749,0.139387 -1.68379,-0.09874 -0.50023,-3.119381 -0.99804,-6.239154 -1.49981,-9.358289 -0.81822,0.275068 -0.5834,-0.687854 -0.74523,-1.18446 -0.0973,-0.59867 -0.19458,-1.197339 -0.29188,-1.796009 0.50775,-0.07179 1.34798,0.137789 1.6612,-0.09862 -0.28485,-1.7066 -0.57073,-3.413034 -0.8526,-5.120128 -1.91472,0 -3.82943,0 -5.74414,0 -0.6002,1.035026 -1.20476,2.067518 -1.80664,3.101563 -0.55351,0.06384 -1.25055,-0.123578 -1.72071,0.08614 -1.39762,2.375946 -2.7938,4.752742 -4.1914,7.1287 1.0317,-0.233844 0.0886,0.661645 -0.0909,1.12043 -1.63504,2.778883 -3.27032,5.55762 -4.90519,8.336601 0.4842,0.06175 1.39021,-0.118273 1.62524,0.08629 -0.45451,0.775925 -0.90901,1.551851 -1.36352,2.327776 -0.20638,-0.307383 0.19555,-1.112221 0.2168,-1.603516 -4.88346,0 -9.76693,0 -14.650392,0 0.207004,-0.975917 0.41545,-1.951529 0.621092,-2.927734 -0.502484,-0.07135 -1.353511,0.139444 -1.651046,-0.09781 -0.104082,-0.886617 0.753069,-0.585767 1.33347,-0.626802 3.516016,0 7.032036,0 10.548046,0 0.47318,-2.210035 0.94387,-4.420603 1.41602,-6.63086 -3.91602,0 -7.83204,0 -11.74805,0 0.14979,-0.700509 0.29985,-1.400963 0.44922,-2.101562 -0.942766,0.262756 -0.29625,-0.76123 -0.28418,-1.271545 0.1669,-0.562722 1.14642,-0.121771 1.65566,-0.261658 4.35274,0 8.70547,0 13.05821,0 0.23534,-0.443368 -0.006,-1.476014 0.61054,-1.447266 0.47425,-0.143108 1.46213,0.348938 1.45361,-0.391148 0.34151,-1.603285 0.68087,-3.207028 1.02374,-4.810024 -7.11784,0 -14.23568,0 -21.353519,0 -0.219641,1.027667 -0.436013,2.056029 -0.654297,3.083985 -0.528894,0.06909 -1.278125,-0.134285 -1.675219,0.09779 -0.506247,2.372171 -1.0093,4.745023 -1.516187,7.117057 0.940582,-0.26196 0.289767,0.764124 0.279874,1.27146 -0.581756,2.728485 -1.161952,5.457303 -1.744718,8.185571 0.505103,0.07104 1.356357,-0.139045 1.657225,0.09788 -0.161784,0.772063 -0.323567,1.544125 -0.48535,2.316188 -0.738933,0 -1.477865,0 -2.216797,0 0.0448,0.94024 -0.806993,0.05697 -1.280286,-0.05485 -1.048499,-0.50125 -2.096997,-1.002499 -3.145495,-1.503749 2.424323,-4.802813 4.850019,-9.604933 7.273437,-14.408203 -4.904297,1.634766 -9.808594,3.269531 -14.71289,4.904297 0.562652,-2.637337 1.123983,-5.274957 1.6875,-7.912109 -0.94542,0.275181 -0.639104,-0.463274 -0.488097,-1.075963 0.243428,-1.145252 0.486856,-2.290504 0.730284,-3.435756 0.716797,0 1.433594,0 2.150391,0 0.435711,-2.041354 0.866396,-4.08378 1.302734,-6.125 -2.677083,0 -5.354167,0 -8.03125,0 -0.285126,1.335666 -0.567528,2.671913 -0.851562,4.007812 -0.716146,0 -1.432292,0 -2.148438,0 -0.622138,2.915142 -1.240671,5.831053 -1.863281,8.746094 0.790757,-0.402118 0.947043,0.751084 0.185937,0.615235 -3.541797,-10e-7 -7.083594,0 -10.62539,0 0.194005,-0.910809 0.386745,-1.821887 0.582031,-2.732422 -0.945419,0.275181 -0.639104,-0.463274 -0.488097,-1.075963 0.243428,-1.145252 0.486856,-2.290504 0.730284,-3.435756 0.725261,0 1.450521,0 2.175782,0 0.42998,-2.042154 0.866094,-4.083014 1.296875,-6.125 -2.683594,0 -5.367188,0 -8.050782,0 -0.286769,1.335283 -0.567284,2.671943 -0.851562,4.007812 -0.723958,0 -1.447917,0 -2.171875,0 -0.621735,2.915089 -1.239034,5.831125 -1.861328,8.746094 0.945548,-0.275692 0.635499,0.464933 0.485679,1.075864 -0.796865,3.738991 -1.592033,7.478344 -2.389976,11.217105 0.726562,0 1.453125,0 2.179687,0 -0.263672,1.257812 -0.527343,2.515625 -0.791015,3.773437 -0.961589,0 -1.923177,0 -2.884766,0 -0.420194,1.9666 -0.837182,3.933884 -1.257812,5.900391 2.684244,0 5.368489,0 8.052734,0 0.269515,-1.260932 0.537673,-2.522154 0.806641,-3.783203 0.964192,0 1.928385,0 2.892578,0 0.557235,-2.669419 1.116593,-5.338394 1.673828,-8.007813 -0.722656,0 -1.445313,0 -2.167969,0 0.229154,-0.462254 0.04024,-1.440451 0.533985,-1.576172 3.609114,0 7.218229,0 10.827343,0 -0.26096,1.231143 -0.523473,2.461957 -0.783203,3.69336 0.717448,0 1.434896,0 2.152344,0 -0.263021,1.257812 -0.526042,2.515625 -0.789063,3.773437 -0.954427,0 -1.908854,0 -2.863281,0 -0.420194,1.9666 -0.837182,3.933884 -1.257812,5.900391 2.677083,0 5.354166,0 8.03125,0 0.269515,-1.260932 0.537672,-2.522154 0.80664,-3.783203 0.396467,0.120715 1.838604,-0.295908 1.26126,0.325218 -0.438349,0.456399 -0.648504,0.98583 -0.53665,1.618923 0.153372,0.440507 -0.331439,1.519198 0.3,1.48164 4.386328,0 8.772656,0 13.158984,0 -0.103107,0.578924 1.057733,0.134533 1.495703,0.275391 8.433724,0 16.867447,0 25.301167,0 0.57028,-0.969311 1.13782,-1.940224 1.70704,-2.910157 0.74153,0 1.48307,0 2.22461,0 0.57282,-0.98909 1.14866,-1.976432 1.72265,-2.964843 2.48828,0 4.97656,0 7.46485,0 0.36521,0.83683 -0.0971,0.970484 -0.86133,0.847656 -0.45245,0.104642 -1.53544,-0.32402 -1.14556,0.493069 0.25057,1.511387 0.50297,3.022475 0.75103,4.534275 1.76192,0.03255 3.56161,-0.0649 5.30007,0.04797 2.43328,0.08515 4.89547,0.01043 7.33938,0.03476 2.8658,-0.04407 5.81207,0.242391 8.57734,-0.694054 2.11135,-0.65107 4.06375,-1.746593 5.81055,-3.089844 0.98404,-0.04529 2.0318,0.08875 2.97797,-0.0631 2.63123,-2.000427 4.7254,-4.617216 6.35207,-7.479162 0.71515,-0.735021 -0.4949,-0.391687 -0.96012,-0.465553 -0.5225,-0.0048 -1.31368,0.169206 -0.76226,-0.507109 1.65034,-3.528218 2.42807,-7.521267 1.89234,-11.401094 -0.14534,-0.556674 -0.9833,-0.135362 -0.86901,-0.77856 -0.29596,-1.435783 -0.78343,-2.837497 -1.50208,-4.117924 0.80208,0 1.60416,0 2.40625,0 -1.49846,-1.91323 -3.05633,-3.930105 -5.33875,-4.948324 -2.07587,-1.064941 -4.4373,-1.268777 -6.73352,-1.198161 z m -2.19531,8.00586 c 2.054,-0.104485 3.94477,1.248793 4.75684,3.094185 0.39821,0.520249 0.23503,1.512811 0.99902,1.665581 0.47413,-0.141112 0.35379,0.416429 0.44922,0.705078 0.41031,3.719941 -1.0914,7.508636 -3.62225,10.213343 -0.3971,0.461696 -0.79471,0.922957 -1.19221,1.384313 0.60612,0 1.21224,0 1.81836,0 -1.55077,1.242431 -3.53939,1.88653 -5.52537,1.734271 -0.86002,-0.0027 -1.72007,0.002 -2.5801,1.04e-4 0.26964,-1.283832 0.53772,-2.567993 0.8086,-3.851563 -0.72266,0 -1.44531,0 -2.16797,0 0.87325,-4.097611 1.74481,-8.195587 2.61914,-12.292968 -0.94527,0.274132 -0.64612,-0.459915 -0.4925,-1.076068 0.22923,-0.46232 0.0405,-1.440465 0.5343,-1.576276 1.1983,0 2.39661,0 3.59492,0 z m -23.7793,14.132812 c -0.82943,0 -1.65885,0 -2.48828,0 0.64779,-1.104817 1.29557,-2.209635 1.94336,-3.314453 0.18164,1.104818 0.36328,2.209636 0.54492,3.314453 z m -47.923827,6.111328 c 0.369077,-1.766289 0.738802,-3.532443 1.107422,-5.298828 -0.714193,0 -1.428385,0 -2.142578,0 0.226557,-0.493979 0.05815,-1.437783 0.545053,-1.635255 1.930946,-0.156086 3.861892,-0.312173 5.792838,-0.46826 -1.767579,2.467448 -3.535157,4.934896 -5.302735,7.402343 z" />
  </g>
</svg>
